{"title":"Leap Year TS XVID-IMAGiNE[ExtraTorrent]","uid":5300672,"size":753749772,"categoryP":"video","categoryS":"movies","magnet":"?xt=urn:btih:a1348d8fd2aa3f334199fce10ac825122b8da983&amp;dn=Leap+Year+TS+XVID-IMAGiNE%5BExtraTorrent%5D&amp;tr=udp%3A%2F%2Ftracker.openbittorrent.com%3A80&amp;tr=udp%3A%2F%2Fopen.demonii.com%3A1337&amp;tr=udp%3A%2F%2Ftracker.coppersurfer.tk%3A6969&amp;tr=udp%3A%2F%2Fexodus.desync.com%3A6969","seeders":0,"leechers":1,"uploader":"raymondhome","files":-1,"time":1264209505,"description":"Love for All and Sharing is the first step to solving all the problems of humanity.\n\nWebsites I want to share.\n\n    &lt;a href=&quot;\nhttp://www.shareintl.org/&quot; rel=&quot;nofollow&quot; target=&quot;_NEW&quot;&gt;\nhttp://www.shareintl.org/&lt;/a&gt;\n\n    &lt;a href=&quot;\nhttp://www.lightmiddleway.com&quot; rel=&quot;nofollow&quot; target=&quot;_NEW&quot;&gt;\nhttp://www.lightmiddleway.com&lt;/a&gt;\n\n\nThank you very much\n\nNo credit for me...credit to EVERYONE for sharing\n &lt;a href=&quot;\nhttp://thepiratebay.se/user/raymondhome/&quot; rel=&quot;nofollow&quot; target=&quot;_NEW&quot;&gt;\nhttp://thepiratebay.se/user/raymondhome/&lt;/a&gt;\n\nRipper ...........: IMAGiNE\nVideo Codec.......: XVID\nAudio Codec.......:MP3\nAudio Bitrate.....:128\nRuntime.......:1h 34mn\nResolution...... 640 x 266\n\nVideo\nID : 0\nFormat : MPEG-4 Visual\nFormat profile : Advanced Simple@L5\nFormat settings, BVOP : Yes\nFormat settings, QPel : No\nFormat settings, GMC : No warppoints\nFormat settings, Matrix : Default (MPEG)\nMuxing mode : Packed bitstream\nCodec ID : XVID\nCodec ID/Hint : XviD\nDuration : 1h 34mn\nBit rate : 908 Kbps\nWidth : 640 pixels\nHeight : 266 pixels\nDisplay aspect ratio : 2.406\nFrame rate : 23.976 fps\nResolution : 24 bits\nColorimetry : 4:2:0\nScan type : Progressive\nBits/(Pixel*Frame) : 0.222\nStream size : 615 MiB (87%)\nWriting library : XviD 1.2.1 (UTC 2008-12-04)\n\nAudio\nID : 1\nFormat : MPEG Audio\nFormat version : Version 1\nFormat profile : Layer 3\nCodec ID : 55\nCodec ID/Hint : MP3\nDuration : 1h 34mn\nBit rate mode : Constant\nBit rate : 128 Kbps\nChannel(s) : 2 channels\nSampling rate : 44.1 KHz\nResolution : 16 bits\nStream size : 86.8 MiB (12%)\nAlignment : Split accross interleaves\nInterleave, duration : 42 ms (1.00 video frame)\nInterleave, preload duration : 500 ms\n\nNOTES:\n\nIMAGiNE bringing you another release.....\n\nThis time it's a TS of leap year,now for the video we used LU's video as it's the only source out and the audio is again our own line audio.\n\nThe video needed alot of TLC and even now it's nothing special.......so please check sample first!!\n\nAudio is direct and isn't too bad,we'd had better,but we've also had worse so .....also there might be a couple of spots that are like 50ms oss,but it isn't easy to sync when the video source isn't the best.\n\ncredit geordieboy1979 &amp; to all the people who made it possible for me to share this with everyone\n\n*****help what we can with haiti...the world is ONE big family*****","torrent":{"xt":"urn:btih:a1348d8fd2aa3f334199fce10ac825122b8da983","amp;dn":"Leap+Year+TS+XVID-IMAGiNE%5BExtraTorrent%5D","amp;tr":["udp%3A%2F%2Ftracker.openbittorrent.com%3A80","udp%3A%2F%2Fopen.demonii.com%3A1337","udp%3A%2F%2Ftracker.coppersurfer.tk%3A6969","udp%3A%2F%2Fexodus.desync.com%3A6969"],"infoHash":"a1348d8fd2aa3f334199fce10ac825122b8da983","infoHashBuffer":{"type":"Buffer","data":[161,52,141,143,210,170,63,51,65,153,252,225,10,200,37,18,43,141,169,131]},"announce":[],"urlList":[]}}